<svg width="47" height="47" xmlns="http://www.w3.org/2000/svg">

 <g>
  <title>background</title>
  <rect fill="none" id="canvas_background" height="49" width="49" y="-1" x="-1"/>
 </g>
 <g>
  <title>Layer 1</title>
  <path stroke="null" id="svg_1" fill-rule="evenodd" clip-rule="evenodd" fill="#517FA6" d="m32.433184,17.713864l0,-0.004682c0.395217,0 0.791222,0.007803 1.187226,-0.001561c0.508586,-0.013264 0.922698,-0.444744 0.922698,-0.949568c0,-0.752164 0,-1.504329 0,-2.255713c0,-0.539155 -0.430645,-0.967514 -0.973085,-0.968295c-0.756581,0 -1.513162,-0.00078 -2.269744,0c-0.541652,0.00078 -0.973085,0.43148 -0.973085,0.969855c-0.000787,0.745142 -0.003149,1.490284 0.002362,2.235426c0.000787,0.111576 0.022044,0.227054 0.057472,0.332388c0.1362,0.396369 0.503075,0.639808 0.951828,0.642149c0.364513,0.00078 0.729814,0 1.094327,0zm-7.298923,0.966734c-2.664174,-0.001561 -4.829996,2.12307 -4.866998,4.750963c-0.038577,2.698897 2.141416,4.838352 4.755204,4.89375c2.719284,0.057739 4.918959,-2.095761 4.976431,-4.714291c0.059046,-2.700457 -2.139054,-4.931982 -4.864636,-4.930422zm-9.411209,2.574056l0,0.063981c0,3.522844 -0.000787,7.045689 0,10.568533c0,0.506385 0.442454,0.942546 0.95419,0.942546c5.636963,0.00078 11.273139,0.00078 16.910102,0c0.516459,0 0.956552,-0.435381 0.956552,-0.945667c0.000787,-3.518943 0,-7.037106 0,-10.555269l0,-0.073344l-2.292575,0c0.323574,1.024473 0.422772,2.068452 0.296019,3.131937c-0.126753,1.063485 -0.473159,2.053627 -1.036068,2.967304c-0.563696,0.915237 -1.294297,1.673644 -2.187866,2.275999c-2.317768,1.565188 -5.370073,1.703293 -7.83034,0.334729c-1.243124,-0.691305 -2.219357,-1.654918 -2.901147,-2.896301c-1.014811,-1.852322 -1.176992,-3.796713 -0.581804,-5.814449c-0.762092,0 -1.519461,0 -2.287064,0zm19.020027,14.153018c0.125178,-0.020287 0.250357,-0.038232 0.373961,-0.064761c0.980958,-0.206767 1.782414,-1.017451 1.974512,-1.995108c0.019682,-0.106114 0.035428,-0.213009 0.052748,-0.319124l0,-19.047548c-0.016533,-0.103774 -0.031491,-0.209108 -0.051174,-0.312882c-0.210992,-1.065826 -1.09905,-1.894455 -2.188653,-2.041923c-0.045663,-0.006242 -0.088963,-0.016385 -0.133839,-0.023408l-19.271958,0c-0.115731,0.020287 -0.233036,0.036672 -0.347193,0.06242c-1.06441,0.240318 -1.851695,1.089234 -2.003641,2.158181c-0.006298,0.045255 -0.015746,0.088949 -0.022831,0.133423l0,19.099045c0.022044,0.120939 0.039364,0.243439 0.066919,0.363598c0.235398,1.031495 1.123456,1.831255 2.18078,1.966239c0.050386,0.005462 0.102347,0.015605 0.153521,0.023408l19.216848,0l0,-0.001561zm-34.80195,-35.310371l47.237122,0l0,46.815208l-47.237122,0l0,-46.815208z"/>
 </g>
</svg>