<svg width="40" height="41" xmlns="http://www.w3.org/2000/svg">

 <g>
  <title>background</title>
  <rect fill="none" id="canvas_background" height="43" width="42" y="-1" x="-1"/>
 </g>
 <g>
  <title>Layer 1</title>
  <path stroke="null" id="svg_1" fill-rule="evenodd" clip-rule="evenodd" fill="#598DCA" d="m22.696097,12.636283c-1.74423,0.648092 -2.846446,2.319666 -2.721239,4.149013l0.041957,0.705897l-0.697959,-0.086367c-2.539424,-0.331187 -4.758506,-1.454637 -6.642594,-3.342468l-0.921066,-0.936435l-0.237093,0.691616c-0.502157,1.542364 -0.18115,3.169735 0.865122,4.264622c0.5581,0.605249 0.432228,0.691616 -0.530129,0.331187c-0.334993,-0.114929 -0.62803,-0.201296 -0.656001,-0.158453c-0.097235,0.101328 0.237093,1.411793 0.502157,1.930675c0.362965,0.720858 1.102215,1.426755 1.91206,1.844308l0.683973,0.331187l-0.809179,0.014281c-0.781207,0 -0.809179,0.014281 -0.725264,0.316905c0.27905,0.936435 1.381265,1.930675 2.609353,2.36319l0.865122,0.301944l-0.753236,0.461077c-1.116201,0.663053 -2.428203,1.037083 -3.740206,1.066326c-0.628696,0.014281 -1.144839,0.072086 -1.144839,0.114929c0,0.144172 1.702939,0.950716 2.693268,1.267622c2.972318,0.936435 6.503402,0.533163 9.154712,-1.065646c1.884089,-1.138411 3.767511,-3.400273 4.647285,-5.590049c0.474852,-1.166974 0.949037,-3.299625 0.949037,-4.321747c0,-0.663053 0.041957,-0.74942 0.823165,-1.541684c0.460866,-0.461757 0.893094,-0.964997 0.977009,-1.109169c0.139858,-0.274062 0.125206,-0.274062 -0.586072,-0.029922c-1.18613,0.433195 -1.35396,0.37539 -0.767222,-0.272702c0.432228,-0.461077 0.949037,-1.296864 0.949037,-1.542364c0,-0.042163 -0.209121,0.028562 -0.44688,0.158453c-0.251079,0.144172 -0.809179,0.360429 -1.228087,0.489639l-0.753236,0.2455l-0.683973,-0.476038c-0.376951,-0.259101 -0.906414,-0.547444 -1.18613,-0.633811c-0.711944,-0.200616 -1.80084,-0.172054 -2.442855,0.058485zm-22.754915,-12.433439l39.959461,0l0,40.803277l-39.959461,0l0,-40.803277z"/>
 </g>
</svg>